<?xml version="1.0" encoding="UTF-8"?>
<!DOCTYPE svg PUBLIC "-//W3C//DTD SVG 1.1//EN" "http://www.w3.org/Graphics/SVG/1.1/DTD/svg11.dtd">
<!-- Creator: CorelDRAW X7 -->
<svg xmlns="http://www.w3.org/2000/svg" xml:space="preserve" width="27.94cm" height="21.59cm" version="1.1" style="shape-rendering:geometricPrecision; text-rendering:geometricPrecision; image-rendering:optimizeQuality; fill-rule:evenodd; clip-rule:evenodd"
viewBox="0 0 27940 21590"
 xmlns:xlink="http://www.w3.org/1999/xlink">
 <defs>
  <style type="text/css">
   <![CDATA[
    .fil2 {fill:#201E1E}
    .fil1 {fill:#B89456}
    .fil0 {fill:#201E1E;fill-rule:nonzero}
    .fil8 {fill:#975021;fill-rule:nonzero}
    .fil4 {fill:#9B6820;fill-rule:nonzero}
    .fil6 {fill:#9B6A21;fill-rule:nonzero}
    .fil5 {fill:#9D691D;fill-rule:nonzero}
    .fil7 {fill:#A1631F;fill-rule:nonzero}
    .fil3 {fill:#CAA361;fill-rule:nonzero}
   ]]>
  </style>
 </defs>
 <g id="Layer_x0020_1">
  <metadata id="CorelCorpID_0Corel-Layer"/>
  <path class="fil0" d="M3452 17062c32,0 62,-1 89,-4 28,-3 53,-8 77,-14 24,-6 47,-13 69,-22 21,-8 42,-18 64,-29l0 -268 -187 0c-11,0 -20,-3 -26,-9 -6,-6 -10,-14 -10,-23l0 -92 371 0 0 464c-30,22 -62,41 -95,57 -33,16 -68,30 -105,41 -37,11 -78,19 -120,24 -43,6 -89,8 -139,8 -88,0 -168,-15 -241,-45 -73,-30 -136,-72 -189,-126 -53,-54 -94,-119 -123,-195 -30,-76 -44,-159 -44,-251 0,-92 14,-176 43,-252 29,-75 70,-140 124,-195 54,-54 118,-96 194,-126 77,-30 162,-44 256,-44 48,0 92,3 133,10 41,7 79,17 114,31 35,13 68,29 98,48 29,19 57,41 83,64l-46 73c-10,15 -22,23 -37,23 -9,0 -19,-3 -30,-9 -14,-8 -30,-18 -47,-29 -18,-11 -39,-22 -64,-33 -25,-10 -54,-19 -88,-26 -34,-7 -74,-11 -121,-11 -68,0 -130,11 -185,33 -55,22 -101,54 -140,95 -39,42 -69,92 -90,150 -20,59 -31,125 -31,198 0,76 11,144 33,204 22,60 52,111 91,152 39,42 86,74 140,96 54,21 113,32 179,32z"/>
  <path id="1" class="fil0" d="M4738 17052c50,0 94,-8 134,-25 39,-17 72,-40 100,-71 27,-30 48,-66 62,-108 14,-43 21,-89 21,-139l0 -734 163 0 0 734c0,70 -11,134 -33,194 -22,59 -54,111 -95,155 -42,43 -92,77 -152,102 -59,25 -126,37 -200,37 -74,0 -141,-12 -201,-37 -59,-25 -110,-59 -151,-102 -42,-44 -74,-96 -96,-155 -22,-60 -33,-124 -33,-194l0 -734 162 0 0 733c0,50 8,97 22,139 14,42 35,78 62,108 28,31 61,54 101,71 39,18 84,26 134,26z"/>
  <polygon id="2" class="fil0" points="5811,17182 5648,17182 5648,15974 5811,15974 "/>
  <polygon id="3" class="fil0" points="6417,17044 6939,17044 6939,17182 6253,17182 6253,15974 6417,15974 "/>
  <polygon id="4" class="fil0" points="7915,15972 7915,16111 7525,16111 7525,17181 7362,17181 7362,16111 6970,16111 6970,15972 "/>
  <polygon id="5" class="fil0" points="7992,16613 8408,16613 8408,16741 7992,16741 "/>
  <polygon id="6" class="fil0" points="9501,15974 9501,16107 8922,16107 8922,16530 9417,16530 9417,16663 8922,16663 8922,17183 8757,17183 8757,15974 "/>
  <path id="7" class="fil0" d="M10009 16678l0 505 -163 0 0 -1209 342 0c76,0 142,8 198,23 55,16 101,38 137,67 37,29 63,65 81,106 17,42 26,88 26,139 0,43 -7,83 -20,120 -14,37 -33,70 -59,100 -25,29 -56,54 -93,75 -37,21 -79,37 -126,47 21,12 39,29 54,52l353 480 -145 0c-30,0 -52,-12 -66,-35l-313 -432c-10,-13 -20,-23 -32,-29 -11,-6 -28,-9 -50,-9l-124 0zm0 -119l171 0c48,0 90,-6 126,-17 36,-12 67,-28 91,-49 25,-21 43,-46 55,-76 12,-29 19,-61 19,-96 0,-72 -24,-126 -71,-162 -48,-37 -119,-55 -212,-55l-179 0 0 455z"/>
  <polygon id="8" class="fil0" points="11777,15974 11777,16107 11198,16107 11198,16508 11667,16508 11667,16636 11198,16636 11198,17049 11777,17049 11777,17182 11033,17182 11033,15974 "/>
  <polygon id="9" class="fil0" points="12875,15974 12875,16107 12295,16107 12295,16508 12764,16508 12764,16636 12295,16636 12295,17049 12875,17049 12875,17182 12131,17182 12131,15974 "/>
  <polygon id="10" class="fil0" points="13747,17182 13584,17182 13584,15974 13747,15974 "/>
  <path id="11" class="fil0" d="M14274 15974c14,0 25,2 32,5 7,4 15,12 24,23l699 910c-1,-15 -2,-29 -3,-43 -1,-14 -1,-27 -1,-40l0 -855 143 0 0 1208 -82 0c-13,0 -24,-2 -33,-7 -8,-4 -17,-12 -25,-22l-699 -909c1,14 2,27 3,41 0,13 1,26 1,37l0 860 -144 0 0 -1208 85 0z"/>
  <path id="12" class="fil0" d="M16628 16578c0,91 -14,173 -43,247 -29,75 -69,138 -121,191 -52,53 -115,94 -188,122 -73,29 -154,44 -243,44l-451 0 0 -1208 451 0c89,0 170,15 243,44 73,29 136,70 188,123 52,53 92,116 121,191 29,74 43,156 43,246zm-168 0c0,-74 -10,-140 -30,-198 -20,-59 -49,-108 -86,-148 -37,-41 -82,-71 -135,-93 -52,-21 -111,-32 -176,-32l-287 0 0 942 287 0c65,0 124,-11 176,-32 53,-21 98,-52 135,-92 37,-40 66,-89 86,-148 20,-58 30,-125 30,-199z"/>
  <path id="13" class="fil0" d="M17438 17052c50,0 95,-8 134,-25 40,-17 73,-40 100,-71 28,-30 48,-66 63,-108 14,-43 21,-89 21,-139l0 -734 163 0 0 734c0,70 -11,134 -34,194 -22,59 -54,111 -95,155 -41,43 -92,77 -151,102 -60,25 -126,37 -201,37 -74,0 -141,-12 -200,-37 -60,-25 -110,-59 -152,-102 -41,-44 -73,-96 -95,-155 -22,-60 -34,-124 -34,-194l0 -734 163 0 0 733c0,50 7,97 22,139 14,42 35,78 62,108 27,31 61,54 100,71 40,18 84,26 134,26z"/>
  <polygon id="14" class="fil0" points="18481,17044 19003,17044 19003,17182 18318,17182 18318,15974 18481,15974 "/>
  <path id="15" class="fil0" d="M19773 17062c33,0 63,-1 90,-4 27,-3 53,-8 77,-14 24,-6 47,-13 68,-22 22,-8 43,-18 64,-29l0 -268 -187 0c-10,0 -19,-3 -25,-9 -7,-6 -10,-14 -10,-23l0 -92 371 0 0 464c-31,22 -62,41 -95,57 -33,16 -68,30 -105,41 -38,11 -78,19 -120,24 -43,6 -89,8 -139,8 -88,0 -168,-15 -241,-45 -73,-30 -136,-72 -189,-126 -53,-54 -94,-119 -123,-195 -30,-76 -45,-159 -45,-251 0,-92 15,-176 44,-252 29,-75 70,-140 124,-195 53,-54 118,-96 194,-126 76,-30 161,-44 256,-44 47,0 92,3 133,10 41,7 79,17 114,31 35,13 68,29 97,48 30,19 58,41 84,64l-47 73c-9,15 -22,23 -37,23 -9,0 -19,-3 -29,-9 -14,-8 -30,-18 -47,-29 -18,-11 -39,-22 -64,-33 -25,-10 -54,-19 -88,-26 -34,-7 -75,-11 -121,-11 -68,0 -130,11 -185,33 -55,22 -102,54 -140,95 -39,42 -69,92 -90,150 -21,59 -31,125 -31,198 0,76 11,144 33,204 21,60 52,111 91,152 39,42 86,74 140,96 54,21 113,32 178,32z"/>
  <polygon id="16" class="fil0" points="21334,15974 21334,16107 20755,16107 20755,16508 21224,16508 21224,16636 20755,16636 20755,17049 21334,17049 21334,17182 20590,17182 20590,15974 "/>
  <path id="17" class="fil0" d="M21772 15974c15,0 26,2 33,5 7,4 15,12 24,23l699 910c-2,-15 -3,-29 -4,-43 0,-14 0,-27 0,-40l0 -855 143 0 0 1208 -83 0c-13,0 -23,-2 -32,-7 -9,-4 -18,-12 -26,-22l-698 -909c1,14 2,27 2,41 1,13 1,26 1,37l0 860 -143 0 0 -1208 84 0z"/>
  <path id="18" class="fil0" d="M23931 16932c9,0 17,3 25,11l64 70c-50,58 -110,102 -180,134 -71,32 -156,48 -255,48 -87,0 -166,-15 -237,-45 -71,-30 -131,-72 -181,-126 -50,-54 -89,-119 -116,-195 -28,-76 -41,-159 -41,-251 0,-91 14,-174 44,-250 29,-76 71,-141 124,-196 53,-54 117,-96 192,-126 74,-30 156,-45 246,-45 89,0 165,13 230,41 64,28 121,66 171,113l-53 74c-4,6 -8,10 -14,14 -5,3 -12,5 -21,5 -8,0 -15,-3 -23,-8 -9,-5 -18,-12 -30,-20 -11,-7 -24,-16 -39,-25 -15,-9 -33,-17 -54,-25 -21,-8 -45,-15 -73,-20 -27,-5 -59,-8 -95,-8 -64,0 -123,11 -177,33 -54,22 -100,54 -139,95 -38,41 -68,91 -90,150 -22,59 -33,125 -33,198 0,75 11,142 33,201 22,59 51,109 88,150 38,40 82,72 133,93 51,21 106,32 165,32 36,0 68,-2 97,-6 28,-5 55,-11 80,-20 24,-9 47,-21 68,-34 21,-14 42,-30 63,-50 10,-8 19,-12 28,-12z"/>
  <polygon id="19" class="fil0" points="25097,15974 25097,16107 24517,16107 24517,16508 24987,16508 24987,16636 24517,16636 24517,17049 25097,17049 25097,17182 24353,17182 24353,15974 "/>
  <path class="fil1" d="M13944 6770c128,-81 390,-368 533,-493 168,-146 835,-671 1011,-728 -67,122 -157,143 -323,290 -296,259 -412,407 -648,624 -122,113 -202,191 -297,327 402,117 644,137 1057,17 612,-179 971,-733 1215,-1279 65,-147 279,-817 254,-972 -248,70 -2677,-163 -2810,1945 -5,76 -29,205 8,269z"/>
  <path class="fil1" d="M10326 5058c29,102 49,80 153,188 127,132 313,457 409,618 171,287 313,630 505,890 400,542 971,929 1949,760 -48,-124 -190,-302 -277,-428 -203,-296 -581,-790 -861,-1020 -71,-59 -59,-37 -96,-116 201,73 621,476 731,605l427 574c36,53 33,56 61,112 34,70 1,60 68,84 65,-354 -32,-720 -169,-986 -448,-871 -1191,-1352 -2290,-1352 -117,0 -517,28 -610,71z"/>
  <path class="fil2" d="M17394 6960l-558 0 1350 1277 128 -49 -920 -1228zm-402 3783c18,-1232 343,-1962 1029,-1962 639,0 917,628 917,1962l0 9 -1946 -9zm992 -2083c-1474,0 -2448,1139 -2448,2557 0,1559 1029,2541 2512,2541 1168,0 1650,-584 2021,-1279l-28 -46c-435,528 -927,639 -1399,639 -1066,0 -1650,-1001 -1650,-2217l3179 0 0 -122c-9,-1147 -658,-2073 -2187,-2073z"/>
  <path class="fil2" d="M14773 13693l0 -49c-166,-84 -239,-391 -239,-666l0 -5773c-81,0 -155,71 -217,130 -355,341 -438,432 -847,613 86,144 87,341 87,579l0 4451c0,275 -67,582 -233,666l0 49 1449 0z"/>
  <path class="fil2" d="M9502 13286c-482,0 -695,-399 -695,-807 0,-454 222,-945 1066,-1335l593 -268 0 1955c-232,241 -556,455 -964,455zm3142 -325c-130,241 -296,306 -445,306 -213,0 -389,-139 -389,-658l0 -1882c0,-1196 -584,-2067 -1937,-2067 -1178,0 -1928,918 -1928,1845l55 0c0,-649 584,-1307 1372,-1307 890,0 1094,630 1094,1251l0 352 -1298 473c-1131,408 -1539,881 -1539,1474 0,612 473,1010 1178,1010 686,0 1242,-333 1677,-862l10 19c176,602 639,843 1084,843 529,0 844,-241 1103,-760l-27 -37 -10 0z"/>
  <path class="fil2" d="M7435 12759c-176,194 -362,378 -668,378 -380,0 -667,-193 -667,-869l0 -3321 1205 0 0 -111 -1205 0 0 -1094 -37 0c-621,418 -1279,816 -1965,1159l0 46 639 0 0 3257c0,980 455,1554 1307,1554 677,0 1103,-287 1428,-953l-37 -46z"/>
  <path class="fil2" d="M3498 13693l0 -55c-198,-93 -285,-436 -285,-742l0 -4190 -32 0c-428,158 -1205,436 -1515,547l0 47c246,231 381,454 381,871l0 2725c0,306 -79,649 -278,742l0 55 1729 0z"/>
  <path class="fil2" d="M2624 8021c436,0 797,-371 797,-825 0,-445 -361,-807 -797,-807 -454,0 -825,362 -825,807 0,454 371,825 825,825z"/>
  <g id="_1397247397808">
   <path class="fil3" d="M21181 11556c128,-146 266,-282 417,-404 1,-16 7,-29 19,-40 12,-10 24,-19 37,-27 13,-9 26,-16 40,-23 21,-10 41,-22 62,-32 13,-8 28,-14 42,-21 23,-10 44,-22 67,-31 16,-7 32,-13 48,-18 35,-12 68,-25 103,-35 28,-8 56,-13 85,-15 80,-3 160,-3 238,-20 21,-2 41,-2 61,-1 68,14 137,19 206,21 29,2 58,7 86,15 35,11 69,24 104,35 17,5 33,11 49,17 31,13 63,25 95,34 16,5 32,11 47,18 14,7 27,17 40,27 6,4 12,10 18,14 19,14 38,26 58,37 14,7 27,14 40,22 14,6 27,13 41,20 14,7 27,15 39,23 13,9 25,18 36,29 5,5 10,10 16,15 11,10 21,21 31,32 0,0 15,16 15,16 11,10 21,21 31,31 0,0 15,16 15,16 11,10 21,20 31,31 0,0 15,16 15,16 11,9 21,20 31,31 1,0 15,16 16,16 11,10 21,21 30,34 9,11 17,24 24,37 9,13 16,26 24,38 10,12 18,24 27,37 10,11 18,24 26,37 8,14 15,27 22,41 10,21 21,42 30,64 7,15 12,31 17,46 10,32 22,64 34,95 6,17 10,35 14,52 8,47 23,91 37,136 8,29 13,59 15,89 4,73 5,145 -2,218 -2,19 -7,39 -12,58 -14,46 -29,91 -38,138 -3,18 -8,35 -14,52 -12,33 -25,65 -34,98 -4,17 -9,32 -15,48 -9,22 -20,44 -32,66 -7,13 -15,27 -23,40 -11,20 -22,40 -32,61 -5,14 -12,27 -20,40 -6,14 -13,27 -20,40 -6,14 -14,27 -22,40 -9,12 -19,24 -29,35 -5,5 -11,10 -16,16 -9,11 -20,21 -31,31 0,0 -17,15 -16,15 -10,11 -21,21 -32,31 1,0 -15,15 -15,15 -10,11 -20,21 -31,31 0,0 -16,14 -15,15 -10,11 -20,20 -31,30 1,0 -15,15 -15,15 -9,11 -20,20 -30,30 0,1 -16,15 -15,15 -10,11 -20,21 -30,30 0,1 -16,15 -16,15 -9,11 -20,20 -32,29 -10,9 -22,17 -35,23 -12,8 -24,14 -36,21 -12,8 -24,15 -35,23 -11,10 -22,18 -34,26 -11,10 -24,17 -37,23 -20,10 -39,21 -59,32 -13,8 -26,15 -40,22 -21,12 -42,22 -64,31 -16,7 -32,12 -48,17 -33,9 -65,21 -97,33 -18,6 -35,11 -53,15 -47,8 -93,23 -138,37 -30,8 -60,13 -91,16 -64,4 -127,3 -190,2 -42,-1 -83,-6 -124,-16 -46,-13 -92,-28 -140,-37 -18,-4 -36,-9 -53,-15 -33,-12 -65,-25 -99,-35 -16,-3 -32,-9 -47,-15 -23,-9 -45,-20 -66,-32 -14,-7 -27,-15 -41,-23 -20,-12 -40,-23 -60,-33 -14,-7 -27,-15 -39,-24 -13,-9 -25,-18 -36,-28 -7,-4 -13,-8 -19,-12 -14,-7 -27,-15 -40,-23 -13,-7 -26,-16 -38,-25 -13,-9 -24,-20 -35,-30 -6,-6 -11,-11 -17,-16 -11,-10 -22,-21 -33,-32 -5,-5 -11,-11 -16,-16 -12,-10 -23,-21 -33,-32 -6,-6 -11,-11 -16,-17 -11,-11 -20,-23 -29,-36 -9,-13 -16,-26 -23,-40 -8,-12 -16,-25 -24,-38 -5,-6 -9,-12 -14,-18 -10,-11 -19,-24 -27,-37 -9,-13 -16,-26 -23,-40 -8,-14 -15,-28 -22,-41 -8,-14 -15,-28 -22,-42 -12,-22 -23,-43 -34,-65 -8,-15 -15,-31 -22,-46 -13,-24 -23,-49 -32,-74 -10,-28 -17,-56 -24,-84 -10,-41 -25,-80 -33,-121 -20,-135 -21,-269 -1,-404 10,-51 29,-100 41,-150 5,-19 12,-37 19,-54 16,-32 32,-65 37,-101 3,-17 9,-33 16,-48 12,-22 22,-45 30,-68 6,-15 14,-29 22,-43 9,-13 19,-26 29,-38 5,-6 10,-12 15,-18 9,-13 19,-25 30,-37 11,-12 24,-20 39,-24z"/>
   <path class="fil4" d="M21756 13044c-140,0 -216,-79 -218,-226 -2,-161 71,-236 231,-233 133,2 257,118 250,235 -7,119 -130,224 -263,224z"/>
   <path class="fil5" d="M22113 11777c-130,4 -214,-74 -214,-201 -1,-119 81,-210 185,-207 87,3 207,115 214,199 7,104 -83,207 -185,209z"/>
   <path class="fil6" d="M22643 12683c-116,0 -206,-88 -200,-194 5,-98 93,-176 197,-175 122,0 208,64 210,156 2,128 -81,214 -207,213z"/>
   <path class="fil7" d="M23242 11728c-5,14 -7,29 -15,41 -32,46 -85,60 -135,38 -49,-22 -75,-76 -61,-127 17,-63 85,-90 138,-54 36,25 70,53 73,102z"/>
   <path class="fil8" d="M22911 13066c-8,32 -29,49 -60,48 -37,-2 -45,-32 -44,-61 1,-34 24,-51 56,-47 33,4 45,30 48,60z"/>
  </g>
  <path class="fil2" d="M26237 12886c-130,241 -297,306 -445,306 -213,0 -390,-139 -390,-659l0 -1881c0,-1196 -584,-2067 -1937,-2067 -1177,0 -1928,917 -1928,1844l56 0c0,-649 584,-1307 1371,-1307 890,0 1094,631 1094,1252l0 352c12,912 -299,2957 1113,2957 528,0 843,-241 1103,-760l-28 -37 -9 0z"/>
 </g>
</svg>
